<svg width="24" height="24" viewBox="0 0 24 24" fill="none" xmlns="http://www.w3.org/2000/svg">
<path d="M6 6L11.6901 11.7173C11.7271 11.7544 11.7565 11.7985 11.7765 11.847C11.7965 11.8955 11.8068 11.9475 11.8068 12C11.8068 12.0525 11.7965 12.1045 11.7765 12.153C11.7565 12.2015 11.7271 12.2456 11.6901 12.2827L6 18M18 18L12.3099 12.2827C12.2729 12.2456 12.2435 12.2015 12.2235 12.153C12.2035 12.1045 12.1932 12.0525 12.1932 12C12.1932 11.9475 12.2035 11.8955 12.2235 11.847C12.2435 11.7985 12.2729 11.7544 12.3099 11.7173L18 6" stroke="#68819D" stroke-linecap="square"/>
</svg>
