<svg id="SvgjsSvg1001" width="288" height="288" xmlns="http://www.w3.org/2000/svg" version="1.1" xmlns:xlink="http://www.w3.org/1999/xlink" xmlns:svgjs="http://svgjs.com/svgjs"><defs id="SvgjsDefs1002"></defs><g id="SvgjsG1008" transform="matrix(0.9167,0,0,0.9167,11.355616127777111,11.995199364471432)"><!--?xml version="1.0" encoding="UTF-8"?--><svg xmlns="http://www.w3.org/2000/svg" xmlns:xlink="http://www.w3.org/1999/xlink" version="1.1" id="Layer_1" x="0px" y="0px" viewBox="0 0 50 50" xml:space="preserve" width="288" height="288"><path fill="#ffffff" d="M8.667 15h30a1 1 0 1 0 0-2h-30a1 1 0 1 0 0 2z" class="color231F20 svgShape"></path><path fill="#ffffff" d="M8.667 37h30a1 1 0 1 0 0-2h-30a1 1 0 1 0 0 2z" class="color231F20 svgShape"></path><path fill="#ffffff" d="M8.667 26h30a1 1 0 1 0 0-2h-30a1 1 0 1 0 0 2z" class="color231F20 svgShape"></path><metadata><rdf:rdf xmlns:rdf="http://www.w3.org/1999/02/22-rdf-syntax-ns#" xmlns:rdfs="http://www.w3.org/2000/01/rdf-schema#" xmlns:dc="http://purl.org/dc/elements/1.1/"><rdf:description about="https://iconscout.com/legal#licenses" dc:title="hamburger,menu" dc:description="hamburger,menu" dc:publisher="Iconscout" dc:date="2017-09-26" dc:format="image/svg+xml" dc:language="en"><dc:creator><rdf:bag><rdf:li>Petras Nargėla</rdf:li></rdf:bag></dc:creator></rdf:description></rdf:rdf></metadata></svg></g></svg>