<?xml version="1.0" encoding="UTF-8"?>
<svg xmlns="http://www.w3.org/2000/svg" width="24" height="24" viewBox="0 0 24 24" fill="none">
  <mask id="mask0" maskUnits="userSpaceOnUse" x="0" y="0" width="24" height="24">
    <path d="M21.5 12.5V5.5H3.5C2.395 5.5 1.5 4.605 1.5 3.5V20.5C1.5 22.157 2.843 23.5 4.5 23.5H21.5V16.5" stroke="#68819D" stroke-miterlimit="10" stroke-linecap="square"></path>
    <path d="M17.5 2.5V1.5H3.5C2.395 1.5 1.5 2.395 1.5 3.5C1.5 4.605 2.395 5.5 3.5 5.5" stroke="#68819D" stroke-miterlimit="10" stroke-linecap="square"></path>
    <path d="M23.5 16.5H18.5C17.395 16.5 16.5 15.605 16.5 14.5C16.5 13.395 17.395 12.5 18.5 12.5H23.5V16.5Z" stroke="#68819D" stroke-miterlimit="10" stroke-linecap="square"></path>
  </mask>
  <g mask="url(#mask0)">
    <rect width="24" height="24" fill="#37B4E4"></rect>
  </g>
</svg>
