<?xml version="1.0" encoding="UTF-8"?>
<svg xmlns="http://www.w3.org/2000/svg" width="63" height="30" viewBox="0 0 63 30" fill="none">
  <g clip-path="url(#clip0)">
    <path d="M26.195 20.4323C22.6302 25.3188 15.7763 26.335 10.9277 22.6918V22.6809C9.83495 21.8593 8.93313 20.7566 8.3496 19.4053C7.89339 18.335 7.6812 17.2323 7.6812 16.1404C7.75546 11.1674 12.3919 9.21067 12.3919 9.21067C12.4449 9.19986 12.4767 9.15662 12.498 9.11337C12.5298 9.01608 12.4874 8.91878 12.4025 8.88635C12.3707 8.87554 12.3282 8.87554 12.2964 8.88635C12.3494 8.86472 12.3388 8.86472 12.2752 8.88635C12.2646 8.88635 12.2539 8.89716 12.2539 8.89716C6.88547 11.3728 4.45587 17.7945 6.84303 23.3296C8.30716 26.7242 11.2036 28.9945 14.5244 29.7296C10.1002 29.6755 6.04731 26.8755 4.50892 22.3999C2.52491 16.6485 5.53805 10.3026 11.2142 8.24851H11.2248C12.498 7.78364 13.909 7.6431 15.3307 7.90256C16.4554 8.10797 17.4739 8.55121 18.3651 9.16743C22.3755 12.0107 21.357 17.0269 21.357 17.0269C21.3464 17.0809 21.3464 17.135 21.3782 17.1782C21.4313 17.2647 21.5374 17.2755 21.6223 17.2215C21.6541 17.1999 21.6753 17.1674 21.6859 17.135C21.6753 17.1891 21.6859 17.1782 21.6965 17.1134C21.6965 17.1026 21.6965 17.0918 21.6965 17.0809C22.6938 11.1566 18.8319 5.50256 12.9966 4.42148C9.09228 3.69716 5.50622 4.92959 3.04479 7.77283C5.27281 3.72959 9.61215 1.66472 14.291 2.60526C20.1581 3.78364 23.9988 9.6431 22.8636 15.6755H22.853C22.5983 17.0377 22.0042 18.335 21.0599 19.4593C20.3173 20.3458 19.4154 21.0161 18.45 21.4809C14.0151 23.5782 10.2912 20.1512 10.2912 20.1512C10.2593 20.1188 10.2063 20.0863 10.1532 20.0972C10.0578 20.108 9.98348 20.1945 9.99409 20.2918C9.99409 20.335 10.0153 20.3674 10.0365 20.3891C9.99409 20.3566 10.0047 20.3674 10.0471 20.3999C10.0578 20.4107 10.0578 20.4107 10.0684 20.4215C14.5775 24.3026 21.3146 23.7728 25.1871 19.1999C27.3302 16.6593 28.0411 12.7999 27.6167 9.70797C28.7307 13.0161 28.4018 17.4161 26.195 20.4323ZM28.3488 10.6701C28.0835 10.0539 27.7758 9.45932 27.4257 8.89716C26.874 6.86472 25.76 4.96202 24.0943 3.47013C21.2297 0.907967 17.6224 -0.216358 14.1212 0.0322908C10.6095 0.28094 7.19315 1.91337 4.7105 4.85391C3.78746 5.94581 3.0554 7.13499 2.52491 8.39986C1.40029 9.79445 0.604571 11.4701 0.243844 13.3512C-0.467002 17.1674 0.402988 20.8972 2.3976 23.8593C4.39221 26.8215 7.49022 28.9945 11.246 29.6864C12.551 29.9242 13.856 29.9674 15.1185 29.8377C17.1238 30.1836 19.2351 29.9674 21.2297 29.0918C24.7309 27.5566 27.2772 24.735 28.5716 21.3945C29.8553 18.0647 29.8872 14.2161 28.3488 10.6701Z" fill="#40B4E2"></path>
    <path d="M32.3063 21.5676V9.83783H34.8314V19.2216H40.5712V21.5676H32.3063Z" fill="#5B6770"></path>
    <path d="M48.2844 13.9459C48.2844 12.7892 47.4993 12.173 46.2262 12.173H44.274V15.7622H46.2792C47.5418 15.7622 48.2844 14.9946 48.2844 13.9892V13.9459ZM46.1943 18.054H44.274V21.5676H41.7383V9.83783H46.4384C49.1863 9.83783 50.8414 11.4919 50.8414 13.8919V13.9243C50.852 16.6486 48.7831 18.054 46.1943 18.054Z" fill="#5B6770"></path>
    <path d="M51.9872 21.5676V9.83783H60.6659V12.1405H54.5017V14.5189H59.9232V16.8108H54.5017V19.2757H60.7507V21.5676H51.9872Z" fill="#5B6770"></path>
    <path d="M61.7692 8.18378H61.8966C62.0663 8.18378 62.1618 8.23784 62.1618 8.36757C62.1618 8.48648 62.0769 8.54054 61.9178 8.54054H61.7799V8.18378H61.7692ZM61.4828 7.98919V9.2H61.7692V8.7027H61.9072L62.13 9.2H62.4483L62.183 8.65946C62.3422 8.61621 62.4377 8.49729 62.4377 8.33513C62.4377 8.10811 62.2679 7.98919 61.9284 7.98919H61.4828ZM61.9284 7.70811C62.1724 7.70811 62.3952 7.8054 62.565 7.97838C62.7347 8.15135 62.8196 8.36757 62.8196 8.63784C62.8196 8.87567 62.7241 9.1027 62.5544 9.26486C62.374 9.43783 62.1512 9.53513 61.9178 9.53513C61.6844 9.53513 61.451 9.43783 61.2812 9.25405C61.1114 9.08108 61.0266 8.85405 61.0266 8.61621C61.0266 8.37838 61.1221 8.14054 61.3024 7.96757C61.4722 7.79459 61.6844 7.70811 61.9284 7.70811ZM61.9284 7.52432C61.5464 7.52432 61.2069 7.71892 61.016 8.05405C60.9099 8.23784 60.8568 8.42162 60.8568 8.62703C60.8568 8.90811 60.9629 9.17838 61.1645 9.38378C61.3661 9.6 61.6419 9.71892 61.9284 9.71892C62.2042 9.71892 62.4801 9.61081 62.6817 9.4054C62.8833 9.2 63 8.92973 63 8.63784C63 8.34594 62.8939 8.07567 62.6923 7.87027C62.4907 7.64324 62.2149 7.52432 61.9284 7.52432Z" fill="#5B6770"></path>
  </g>
  <defs>
    <clipPath id="clip0">
      <path d="M0 0H63V30H0V0Z" fill="white"></path>
    </clipPath>
  </defs>
</svg>
