<?xml version="1.0" encoding="UTF-8"?>
<svg xmlns="http://www.w3.org/2000/svg" width="63" height="30" viewBox="0 0 63 30" fill="none">
  <g clip-path="url(#clip0)">
    <path d="M26.1951 20.4323C22.6303 25.3188 15.7765 26.335 10.9279 22.6917V22.6809C9.83507 21.8593 8.93325 20.7566 8.34972 19.4052C7.89351 18.335 7.68132 17.2323 7.68132 16.1404C7.75558 11.1674 12.392 9.21064 12.392 9.21064C12.445 9.19983 12.4769 9.15659 12.4981 9.11334C12.5299 9.01605 12.4875 8.91875 12.4026 8.88632C12.3708 8.8755 12.3283 8.8755 12.2965 8.88632C12.3496 8.86469 12.3389 8.86469 12.2753 8.88632C12.2647 8.88632 12.2541 8.89713 12.2541 8.89713C6.88559 11.3728 4.45599 17.7944 6.84316 23.3296C8.30729 26.7242 11.2037 28.9944 14.5245 29.7296C10.1003 29.6755 6.04743 26.8755 4.50904 22.3998C2.52504 16.6485 5.53817 10.3025 11.2143 8.24848H11.2249C12.4981 7.78361 13.9092 7.64307 15.3309 7.90253C16.4555 8.10794 17.474 8.55118 18.3652 9.1674C22.3757 12.0106 21.3571 17.0269 21.3571 17.0269C21.3465 17.0809 21.3465 17.135 21.3784 17.1782C21.4314 17.2647 21.5375 17.2755 21.6224 17.2215C21.6542 17.1998 21.6754 17.1674 21.686 17.135C21.6754 17.189 21.686 17.1782 21.6966 17.1133C21.6966 17.1025 21.6966 17.0917 21.6966 17.0809C22.6939 11.1566 18.832 5.50253 12.9967 4.42145C9.0924 3.69713 5.50634 4.92956 3.04491 7.7728C5.27293 3.72956 9.61227 1.66469 14.2911 2.60523C20.1582 3.78361 23.9989 9.64307 22.8637 15.6755H22.8531C22.5985 17.0377 22.0043 18.335 21.0601 19.4593C20.3174 20.3458 19.4156 21.016 18.4501 21.4809C14.0153 23.5782 10.2913 20.1512 10.2913 20.1512C10.2595 20.1187 10.2064 20.0863 10.1534 20.0971C10.0579 20.1079 9.98361 20.1944 9.99422 20.2917C9.99422 20.335 10.0154 20.3674 10.0367 20.389C9.99422 20.3566 10.0048 20.3674 10.0473 20.3998C10.0579 20.4106 10.0579 20.4106 10.0685 20.4215C14.5776 24.3025 21.3147 23.7728 25.1872 19.1998C27.3304 16.6593 28.0412 12.7998 27.6168 9.70794C28.7308 13.016 28.4019 17.416 26.1951 20.4323ZM28.3489 10.6701C28.0836 10.0539 27.776 9.45929 27.4258 8.89713C26.8741 6.86469 25.7601 4.96199 24.0944 3.4701C21.2298 0.907936 17.6225 -0.216388 14.1214 0.0322603C10.6096 0.280909 7.19327 1.91334 4.71062 4.85388C3.78758 5.94578 3.05552 7.13496 2.52504 8.39983C1.40042 9.79442 0.604693 11.4701 0.243966 13.3512C-0.46688 17.1674 0.40311 20.8971 2.39772 23.8593C4.39233 26.8215 7.49034 28.9944 11.2462 29.6863C12.5511 29.9242 13.8561 29.9674 15.1187 29.8377C17.1239 30.1836 19.2352 29.9674 21.2298 29.0917C24.731 27.5566 27.2773 24.735 28.5717 21.3944C29.8554 18.0647 29.8873 14.216 28.3489 10.6701Z" fill="white"></path>
    <path d="M32.3064 21.5675V9.83777H34.8315V19.2216H40.5713V21.5675H32.3064Z" fill="white"></path>
    <path d="M48.2844 13.9459C48.2844 12.7891 47.4993 12.1729 46.2262 12.1729H44.274V15.7621H46.2792C47.5418 15.7621 48.2844 14.9945 48.2844 13.9891V13.9459ZM46.1943 18.054H44.274V21.5675H41.7383V9.83777H46.4384C49.1862 9.83777 50.8413 11.4918 50.8413 13.8918V13.9243C50.852 16.6486 48.7831 18.054 46.1943 18.054Z" fill="white"></path>
    <path d="M51.9873 21.5675V9.83777H60.666V12.1405H54.5018V14.5189H59.9233V16.8107H54.5018V19.2756H60.7509V21.5675H51.9873Z" fill="white"></path>
    <path d="M61.7694 8.18375H61.8967C62.0664 8.18375 62.1619 8.23781 62.1619 8.36754C62.1619 8.48646 62.077 8.54051 61.9179 8.54051H61.78V8.18375H61.7694ZM61.4829 7.98916V9.19997H61.7694V8.70267H61.9073L62.1301 9.19997H62.4484L62.1831 8.65943C62.3423 8.61618 62.4378 8.49727 62.4378 8.3351C62.4378 8.10808 62.268 7.98916 61.9285 7.98916H61.4829ZM61.9285 7.70808C62.1725 7.70808 62.3953 7.80537 62.5651 7.97835C62.7348 8.15132 62.8197 8.36754 62.8197 8.63781C62.8197 8.87564 62.7242 9.10267 62.5545 9.26483C62.3741 9.43781 62.1513 9.5351 61.9179 9.5351C61.6845 9.5351 61.4511 9.43781 61.2813 9.25402C61.1116 9.08105 61.0267 8.85402 61.0267 8.61618C61.0267 8.37835 61.1222 8.14051 61.3025 7.96754C61.4723 7.79456 61.6845 7.70808 61.9285 7.70808ZM61.9285 7.52429C61.5466 7.52429 61.2071 7.71889 61.0161 8.05402C60.91 8.23781 60.8569 8.42159 60.8569 8.627C60.8569 8.90808 60.963 9.17835 61.1646 9.38375C61.3662 9.59997 61.642 9.71889 61.9285 9.71889C62.2044 9.71889 62.4802 9.61078 62.6818 9.40537C62.8834 9.19997 63.0001 8.9297 63.0001 8.63781C63.0001 8.34591 62.894 8.07564 62.6924 7.87024C62.4908 7.64321 62.215 7.52429 61.9285 7.52429Z" fill="white"></path>
  </g>
  <defs>
    <clipPath id="clip0">
      <path d="M0 0H63V30H0V0Z" fill="white"></path>
    </clipPath>
  </defs>
</svg>
